<svg width="87" height="55" viewBox="0 0 87 55" fill="none" xmlns="http://www.w3.org/2000/svg">
<path d="M15.3748 1.02912C13.559 1.02912 11.9339 1.37249 10.5021 2.05824C9.06934 2.74498 7.9389 3.68304 7.1121 4.87275C6.28496 6.06378 5.8714 7.38494 5.8714 8.83756C5.8714 10.4117 6.33496 11.9454 7.26375 13.4381C8.27168 15.1735 9.68489 16.6867 11.5007 17.9781C13.3169 19.2698 15.7778 20.8029 18.8857 22.5783C22.073 24.3942 24.5955 25.9783 26.4521 27.3299C28.3077 28.6825 29.8921 30.3566 31.2036 32.3539C32.5145 34.3516 33.1711 36.7029 33.1711 39.4061C33.1711 42.2309 32.4341 44.6825 30.9616 46.7606C29.4881 48.8394 27.4809 50.4529 24.9389 51.6032C22.3965 52.7532 19.5108 53.3886 16.2828 53.5098C15.2735 53.5492 14.2947 53.4995 13.3471 53.3581C12.3984 53.2164 11.218 53.0045 9.80608 52.7227C7.9495 52.3197 6.678 52.1174 5.99259 52.1174C4.45851 52.1174 3.38966 52.7634 2.78438 54.0548H2.42114L0 33.9582H0.302642C1.35163 41.1008 3.26847 46.1457 6.05285 49.091C8.83756 52.0373 12.2471 53.4085 16.2828 53.2071C21.0439 52.9651 24.4339 51.8754 26.4521 49.9383C28.4693 48.0013 29.4785 45.7616 29.4785 43.2193C29.4785 42.5746 29.4182 41.9484 29.2971 41.3428C28.9736 39.4468 28.1669 37.732 26.8756 36.1979C25.5839 34.6645 24.1111 33.3225 22.4571 32.1725C20.8019 31.0225 18.6029 29.6404 15.8593 28.0259C13.3567 26.5733 11.3286 25.3127 9.77562 24.2429C8.22168 23.1743 6.78893 21.9532 5.47803 20.5807C4.16614 19.2092 3.20788 17.7159 2.60292 16.1016C2.19896 14.9315 1.99764 13.7616 1.99764 12.5908C1.99764 10.4521 2.63306 8.46505 3.90422 6.62834C5.17539 4.79261 6.92038 3.3294 9.1402 2.23969C11.359 1.15031 13.801 0.605286 16.4645 0.605286C17.796 0.605286 19.5516 0.80793 21.7307 1.21057C23.2637 1.49368 24.4544 1.6344 25.3021 1.6344C26.8352 1.6344 27.8236 1.08971 28.2679 0H28.6312L30.8709 17.8569H30.5682C30.2854 14.5484 29.4484 11.6127 28.056 9.04948C26.664 6.48728 24.868 4.50984 22.6687 3.11749C20.4688 1.72546 18.038 1.02912 15.3748 1.02912Z" fill="white"/>
<path d="M65.6759 32.8686C68.2182 32.8686 70.3566 32.163 72.0923 30.7501C73.8267 29.3379 75.1187 27.4915 75.9661 25.2115C76.8137 22.932 77.2376 20.4804 77.2376 17.857C77.2376 15.113 76.7929 12.4799 75.9058 9.95747C75.0177 7.436 73.7466 5.39797 72.0923 3.84403C70.437 2.29075 68.5 1.51328 66.2812 1.51328H57.7462C56.5357 1.51328 55.6069 1.77652 54.9619 2.30035C54.3159 2.82518 53.9725 3.89502 53.9331 5.50856V32.8686H65.6759ZM44.0664 52.6019C45.0346 52.5622 45.7809 52.4506 46.3061 52.2692C46.8299 52.0874 47.2233 51.7145 47.4862 51.149C47.7484 50.5844 47.8796 49.7172 47.8796 48.5464V5.50856C47.8392 3.81357 47.5061 2.72419 46.8809 2.23976C46.2548 1.75566 45.3167 1.51328 44.0664 1.51328V1.21064H66.2812C69.7106 1.21064 72.7072 2.0083 75.27 3.60198C77.8322 5.19632 79.7994 7.27442 81.1719 9.83662C82.5434 12.3995 83.2301 15.0723 83.2301 17.857C83.2301 20.3993 82.655 22.7701 81.5047 24.9694C80.3547 27.1694 78.5888 29.0051 76.2084 30.4776C73.8267 31.951 70.8817 32.8487 67.3709 33.1712L62.7097 33.1106V33.2318C65.2918 33.5146 67.5523 34.2815 69.4894 35.5318C71.4264 36.7831 73.0304 38.1754 74.3015 39.7088C75.5727 41.2426 76.9952 43.1995 78.569 45.5802C80.2233 48.0421 81.5851 49.8278 82.655 50.9371C83.7235 52.0476 84.9645 52.6019 86.3778 52.6019V52.9046H65.9179V52.6019C68.8632 52.5622 71.1238 51.8251 72.6976 50.3924C74.2714 48.9603 75.0581 47.1749 75.0581 45.0352C75.0581 43.1389 74.432 41.273 73.1817 39.4363C71.9304 37.6003 70.0947 36.1069 67.6735 34.9569C65.252 33.807 62.3865 33.2318 59.078 33.2318H53.9331V48.6672C53.9725 50.2818 54.3056 51.341 54.9314 51.8453C55.5569 52.3503 56.495 52.6019 57.7462 52.6019V52.9046H44.0664V52.6019Z" fill="white"/>
<path d="M38.4939 36.3498L35.2529 33.1088L38.4939 29.8675L41.7349 33.1088L38.4939 36.3498Z" fill="white"/>
</svg>
