<svg width="24" height="24" viewBox="0 0 24 24" fill="none" xmlns="http://www.w3.org/2000/svg">
<path d="M11.6056 19.1873L11.9977 19.6907L12.3927 19.1895C13.4627 17.8318 14.7298 16.0589 15.7321 14.254C16.7237 12.4684 17.5 10.5755 17.5 9C17.5 5.96386 15.0361 3.5 12 3.5C8.96386 3.5 6.5 5.96386 6.5 9C6.5 10.5619 7.28771 12.461 8.28304 14.2505C9.28986 16.0608 10.5564 17.8405 11.6056 19.1873ZM12 21.2395C11.8179 21.0266 11.5768 20.7397 11.2945 20.3919C10.6447 19.5913 9.77908 18.4706 8.91448 17.1891C8.04892 15.9062 7.19053 14.4713 6.55005 13.0417C5.90664 11.6055 5.5 10.2113 5.5 9C5.5 5.40614 8.40614 2.5 12 2.5C15.5939 2.5 18.5 5.40614 18.5 9C18.5 10.2113 18.0934 11.6055 17.4499 13.0417C16.8095 14.4713 15.9511 15.9062 15.0855 17.1891C14.2209 18.4706 13.3553 19.5913 12.7055 20.3919C12.4232 20.7397 12.1821 21.0266 12 21.2395Z" stroke="white"/>
<path d="M12 11.5C13.3807 11.5 14.5 10.3807 14.5 9C14.5 7.61929 13.3807 6.5 12 6.5C10.6193 6.5 9.5 7.61929 9.5 9C9.5 10.3807 10.6193 11.5 12 11.5Z" fill="#D9D9D9"/>
</svg>
