<svg width="861" height="195" viewBox="0 0 861 195" fill="none" xmlns="http://www.w3.org/2000/svg">
<path d="M1.5 178.61C15.539 179.506 29.3168 180.383 43.4276 180.477C97.4561 180.839 151.281 181.499 205.126 176.223C267.159 170.145 328.987 160.879 387.695 139.65C437.995 121.46 485.415 96.4127 530.614 68.3182C547.965 57.5335 566.86 45.5942 579.534 29.3063C581.787 25.9505 584.372 19.4008 579.534 12.0383C576.652 7.65321 571.888 4.88961 566.768 3.68606C556.874 1.3607 543.023 1.47269 532.956 1.51612C515.476 1.59153 500.894 2.5797 483.628 5.42396C462.953 8.82962 435.432 17.0187 418.59 29.4285C408.424 36.9196 401.735 45.2134 399.19 49.0198C396.398 53.1939 394.046 58.1186 393.442 63.1823C392.78 68.7398 394.688 74.8623 397.044 79.8349C404.321 95.1912 418.377 105.755 433.013 113.918C455.651 126.546 480.092 135.969 504.366 145.045C541.216 158.822 583.678 151.349 621.918 160.791C645.977 166.731 670.193 171.741 694.543 176.38C719.034 181.045 743.543 185.989 768.254 189.427C798.532 193.64 828.993 193.499 859.499 193.499" stroke="#6F7A6A" stroke-width="3" stroke-linecap="round"/>
</svg>
